<svg xmlns:xlink="http://www.w3.org/1999/xlink" xmlns="http://www.w3.org/2000/svg" version="1.1" viewBox="0 0 127 48"><title>Appstore</title><desc>Created with Sketch.</desc><g fill-rule="evenodd" fill="none" stroke-width="1" stroke="none" id="Symbols"><g fill-rule="nonzero" fill="#EBEBEB" transform="translate(-926.000000, -22.000000)" id="Section-/-Footer-/-Desktop"><g transform="translate(926.000000, 22.000000)" id="Appstore-2"><path id="Appstore" d="M119.745455,1.42108547e-14 C123.53255,1.42108547e-14 126.602597,3.07004743 126.602597,6.85714286 L126.602597,41.0181818 C126.602597,44.8052772 123.53255,47.8753247 119.745455,47.8753247 L6.85714286,47.8753247 C3.07004743,47.8753247 4.97379915e-14,44.8052772 4.97379915e-14,41.0181818 L4.97379915e-14,6.85714286 C4.97379915e-14,3.07004743 3.07004743,1.42108547e-14 6.85714286,1.42108547e-14 L119.745455,1.42108547e-14 Z M119.745455,0.548571429 L6.85714286,0.548571429 C3.37301506,0.548571429 0.548571429,3.37301506 0.548571429,6.85714286 L0.548571429,41.0181818 C0.548571429,44.5023096 3.37301506,47.3267532 6.85714286,47.3267532 L119.745455,47.3267532 C123.229582,47.3267532 126.054026,44.5023096 126.054026,41.0181818 L126.054026,6.85714286 C126.054026,3.37301506 123.229582,0.548571429 119.745455,0.548571429 Z M67.5205714,26.6485714 C68.5080049,26.6485714 69.3077112,27.0008536 69.9197143,27.7054286 C70.5317173,28.4100035 70.8377143,29.3588512 70.8377143,30.552 C70.8377143,31.7451488 70.5317173,32.6965679 69.9197143,33.4062857 C69.3077112,34.1160035 68.5080049,34.4708571 67.5205714,34.4708571 C66.4714233,34.4708571 65.633146,34.0337187 65.0057143,33.1594286 L65.0057143,37.1245714 L63.8485714,37.1245714 L63.8485714,26.8337143 L65.0057143,26.8337143 L65.0057143,27.9445714 C65.28343,27.5537123 65.6434264,27.2400012 66.0857143,27.0034286 C66.5280022,26.766856 67.0062831,26.6485714 67.5205714,26.6485714 Z M58.6954286,26.6485714 C59.6828621,26.6485714 60.4825684,27.0008536 61.0945714,27.7054286 C61.7065745,28.4100035 62.0125714,29.3588512 62.0125714,30.552 C62.0125714,31.7451488 61.7065745,32.6965679 61.0945714,33.4062857 C60.4825684,34.1160035 59.6828621,34.4708571 58.6954286,34.4708571 C57.6462805,34.4708571 56.8080031,34.0337187 56.1805714,33.1594286 L56.1805714,37.1245714 L55.0234286,37.1245714 L55.0234286,26.8337143 L56.1805714,26.8337143 L56.1805714,27.9445714 C56.4582871,27.5537123 56.8182835,27.2400012 57.2605714,27.0034286 C57.7028594,26.766856 58.1811403,26.6485714 58.6954286,26.6485714 Z M28.5176029,16.815775 C29.4269275,16.8865187 31.4262269,17.2670268 32.7433481,19.1826406 L32.5899064,19.2802875 C32.0216432,19.657571 30.1100456,21.1049178 30.1365818,23.7521562 C30.1683699,27.3825781 33.3403891,28.5903125 33.3769407,28.6069062 L33.2513924,28.9833479 C33.0518463,29.5454046 32.6058421,30.6585361 31.8357894,31.8251272 L31.4405077,32.4003884 C30.5113573,33.7247789 29.5116796,34.9405788 28.0093255,34.9683125 C26.3911977,34.9985 25.8715046,34.0151094 24.0228894,34.0151094 C22.1742271,34.0151094 21.5960042,34.9378437 20.0669208,34.9985 C18.4790719,35.057 17.269709,33.4194687 16.255508,31.9614687 C14.1799427,28.9828906 12.5957725,23.5421094 14.7252927,19.8694531 C15.7806673,18.0450312 17.6705504,16.8908281 19.7201758,16.8605469 C21.2797267,16.832375 22.7524027,17.9047344 23.7043481,17.9047344 C24.6084697,17.9047344 26.2614839,16.7473291 28.031871,16.7863972 L28.5176029,16.815775 Z M103.407429,26.6485714 C104.508006,26.6485714 105.379711,27.0265676 106.022571,27.7825714 C106.665432,28.5385752 106.986857,29.4925657 106.986857,30.6445714 L106.986857,30.9377143 L100.954286,30.9377143 C101.005715,31.6680037 101.27314,32.2799975 101.756571,32.7737143 C102.240002,33.267431 102.867425,33.5142857 103.638857,33.5142857 C104.564576,33.5142857 105.330854,33.2005746 105.937714,32.5731429 L106.493143,33.3291429 C105.731996,34.0902895 104.744577,34.4708571 103.530857,34.4708571 C102.419994,34.4708571 101.509718,34.1082893 100.8,33.3831429 C100.090282,32.6579964 99.7354286,31.7142915 99.7354286,30.552 C99.7354286,29.4617088 100.085139,28.5385752 100.784571,27.7825714 C101.484003,27.0265676 102.35828,26.6485714 103.407429,26.6485714 Z M89.5062857,26.6485714 C90.6171484,26.6485714 91.5094252,27.0214248 92.1831429,27.7671429 C92.8568605,28.5128609 93.1937143,29.4411373 93.1937143,30.552 C93.1937143,31.6628627 92.8542891,32.5937105 92.1754286,33.3445714 C91.5068538,34.0954323 90.6171484,34.4708571 89.5062857,34.4708571 C88.395423,34.4708571 87.5031462,34.0954323 86.8294286,33.3445714 C86.1557109,32.5937105 85.8188571,31.6628627 85.8188571,30.552 C85.8188571,29.4411373 86.1557109,28.5128609 86.8294286,27.7671429 C87.5031462,27.0214248 88.395423,26.6485714 89.5062857,26.6485714 Z M83.1034286,24.7971429 L83.1034286,26.8337143 L84.6154286,26.8337143 L84.6154286,27.852 L83.1034286,27.852 L83.1034286,32.4805714 C83.1034286,32.7685729 83.1677136,32.9999991 83.2962857,33.1748571 C83.4248578,33.3497152 83.6125702,33.4371429 83.8594286,33.4371429 C84.1988588,33.4371429 84.4611419,33.3342867 84.6462857,33.1285714 L84.9857143,33.9925714 C84.646284,34.3114302 84.1834315,34.4708571 83.5971429,34.4708571 C83.0519973,34.4708571 82.6405728,34.3217158 82.3628571,34.0234286 C82.0851415,33.7251414 81.9462857,33.2931457 81.9462857,32.7274286 L81.9462857,27.852 L80.712,27.852 L80.712,26.8337143 L81.9462857,26.8337143 L81.9462857,24.7971429 L83.1034286,24.7971429 Z M75.96,23.8405714 C77.4925791,23.8405714 78.711424,24.3188524 79.6165714,25.2754286 L78.8451429,26.2165714 C78.094282,25.3937102 77.1017205,24.9822857 75.8674286,24.9822857 C75.2502826,24.9822857 74.7437163,25.1339985 74.3477143,25.4374286 C73.9517123,25.7408587 73.7537143,26.1342833 73.7537143,26.6177143 C73.7537143,26.9777161 73.9054271,27.2759988 74.2088571,27.5125714 C74.5122872,27.749144 74.887712,27.9239994 75.3351429,28.0371429 C75.7825737,28.1502863 76.2711402,28.2917134 76.8008571,28.4614286 C77.3305741,28.6311437 77.8191406,28.8111419 78.2665714,29.0014286 C78.7140022,29.1917152 79.0894271,29.4977122 79.3928571,29.9194286 C79.6962872,30.341145 79.848,30.8502827 79.848,31.4468571 C79.848,32.2902899 79.5368603,33.0051399 78.9145714,33.5914286 C78.2922826,34.1777172 77.3382921,34.4708571 76.0525714,34.4708571 C74.3862774,34.4708571 73.0697191,33.9257197 72.1028571,32.8354286 L72.8588571,31.8634286 C73.7331472,32.8405714 74.8131364,33.3291429 76.0988571,33.3291429 C76.9320042,33.3291429 77.543998,33.1517161 77.9348571,32.7968571 C78.3257162,32.4419982 78.5211429,32.0280024 78.5211429,31.5548571 C78.5211429,31.1948553 78.4080011,30.8914298 78.1817143,30.6445714 C77.9554274,30.3977131 77.6648589,30.2048578 77.31,30.066 C77.0438558,29.9618566 76.754572,29.8649465 76.4421435,29.775268 L76.122,29.688 C75.684855,29.5748566 75.2502879,29.4488578 74.8182857,29.31 C74.3862836,29.1711422 73.9928589,29.004001 73.638,28.8085714 C73.2831411,28.6131419 72.9925726,28.3354304 72.7662857,27.9754286 C72.5399989,27.6154268 72.4268571,27.1885739 72.4268571,26.6948571 C72.4268571,25.8514244 72.7611395,25.1648598 73.4297143,24.6351429 C74.0982891,24.1054259 74.9417092,23.8405714 75.96,23.8405714 Z M98.7171429,26.6794286 L98.7171429,27.8674286 C98.5731421,27.8365713 98.418858,27.8211429 98.2542857,27.8211429 C97.9045697,27.8211429 97.5240021,27.9445702 97.1125714,28.1914286 C96.7011408,28.4382869 96.4080009,28.7108557 96.2331429,29.0091429 L96.2331429,34.2857143 L95.076,34.2857143 L95.076,26.8337143 L96.2331429,26.8337143 L96.2331429,28.0371429 C96.9222892,27.1319955 97.7502809,26.6794286 98.7171429,26.6794286 Z M49.5771429,23.9948571 L53.7274286,34.2857143 L52.2617143,34.2857143 L51.3514286,32.0022857 L46.2291429,32.0022857 L45.3188571,34.2857143 L43.8531429,34.2857143 L47.988,23.9948571 L49.5771429,23.9948571 Z M89.5062857,27.6822857 C88.7451391,27.6822857 88.1408594,27.9625686 87.6934286,28.5231429 C87.2459978,29.0837171 87.0222857,29.759996 87.0222857,30.552 C87.0222857,31.3542897 87.2434264,32.0382829 87.6857143,32.604 C88.138288,33.1594313 88.7451391,33.4371429 89.5062857,33.4371429 C90.2674324,33.4371429 90.8691406,33.1568599 91.3114286,32.5962857 C91.7537165,32.0357115 91.9748571,31.3542897 91.9748571,30.552 C91.9748571,29.7497103 91.7537165,29.0708599 91.3114286,28.5154286 C90.8691406,27.9599972 90.2674324,27.6822857 89.5062857,27.6822857 Z M67.2274286,27.6822857 C66.7851406,27.6822857 66.3557164,27.7979988 65.9391429,28.0294286 C65.5225693,28.2608583 65.2114296,28.5411412 65.0057143,28.8702857 L65.0057143,32.2337143 C65.2114296,32.5731446 65.5225693,32.8585703 65.9391429,33.09 C66.3557164,33.3214297 66.7851406,33.4371429 67.2274286,33.4371429 C67.9577179,33.4371429 68.538855,33.1671456 68.9708571,32.6271429 C69.4028593,32.0871402 69.6188571,31.3954328 69.6188571,30.552 C69.6188571,29.7085672 69.4028593,29.0194312 68.9708571,28.4845714 C68.538855,27.9497116 67.9577179,27.6822857 67.2274286,27.6822857 Z M58.4022857,27.6822857 C57.9599978,27.6822857 57.5305735,27.7979988 57.114,28.0294286 C56.6974265,28.2608583 56.3862867,28.5411412 56.1805714,28.8702857 L56.1805714,32.2337143 C56.3862867,32.5731446 56.6974265,32.8585703 57.114,33.09 C57.5305735,33.3214297 57.9599978,33.4371429 58.4022857,33.4371429 C59.1325751,33.4371429 59.7137121,33.1671456 60.1457143,32.6271429 C60.5777164,32.0871402 60.7937143,31.3954328 60.7937143,30.552 C60.7937143,29.7085672 60.5777164,29.0194312 60.1457143,28.4845714 C59.7137121,27.9497116 59.1325751,27.6822857 58.4022857,27.6822857 Z M48.7902857,25.3217143 L46.5994286,30.8605714 L50.9657143,30.8605714 L48.7902857,25.3217143 Z M103.392,27.6051429 C102.651425,27.6051429 102.067716,27.8571403 101.640857,28.3611429 C101.213998,28.8651454 100.985143,29.4411396 100.954286,30.0891429 L105.845143,30.0891429 C105.834857,29.4514254 105.618859,28.8780025 105.197143,28.3688571 C104.775426,27.8597117 104.173718,27.6051429 103.392,27.6051429 Z M76.2852857,12.9735714 C76.7832882,12.9735714 77.1882842,13.0935702 77.5002857,13.3335714 C77.8122873,13.5735726 77.9682857,13.9425689 77.9682857,14.4405714 L77.9682857,17.4285714 L77.2932857,17.4285714 L77.2932857,16.9335714 C76.9272839,17.3355734 76.4472887,17.5365714 75.8532857,17.5365714 C75.4512837,17.5365714 75.0972872,17.4075727 74.7912857,17.1495714 C74.4852842,16.8915701 74.3322857,16.5405736 74.3322857,16.0965714 C74.3322857,15.6405691 74.4837842,15.2880727 74.7867857,15.0390714 C75.0897872,14.7900702 75.4452837,14.6655714 75.8532857,14.6655714 C76.4712888,14.6655714 76.951284,14.8635694 77.2932857,15.2595714 L77.2932857,14.4765714 C77.2932857,14.18857 77.1912867,13.9635722 76.9872857,13.8015714 C76.7832847,13.6395706 76.5192873,13.5585714 76.1952857,13.5585714 C75.6852832,13.5585714 75.2412876,13.7595694 74.8632857,14.1615714 L74.5482857,13.6935714 C75.010288,13.213569 75.5892822,12.9735714 76.2852857,12.9735714 Z M52.5882857,12.9735714 C53.236289,12.9735714 53.7567837,13.1910693 54.1497857,13.6260714 C54.5427877,14.0610736 54.7392857,14.6025682 54.7392857,15.2505714 C54.7392857,15.8985747 54.5412877,16.4415692 54.1452857,16.8795714 C53.7552838,17.3175736 53.236289,17.5365714 52.5882857,17.5365714 C51.9402825,17.5365714 51.4197877,17.3175736 51.0267857,16.8795714 C50.6337837,16.4415692 50.4372857,15.8985747 50.4372857,15.2505714 C50.4372857,14.6025682 50.6337837,14.0610736 51.0267857,13.6260714 C51.4197877,13.1910693 51.9402825,12.9735714 52.5882857,12.9735714 Z M94.2312857,12.9735714 C94.879289,12.9735714 95.3997837,13.1910693 95.7927857,13.6260714 C96.1857877,14.0610736 96.3822857,14.6025682 96.3822857,15.2505714 C96.3822857,15.8985747 96.1842877,16.4415692 95.7882857,16.8795714 C95.3982838,17.3175736 94.879289,17.5365714 94.2312857,17.5365714 C93.5832825,17.5365714 93.0627877,17.3175736 92.6697857,16.8795714 C92.2767837,16.4415692 92.0802857,15.8985747 92.0802857,15.2505714 C92.0802857,14.6025682 92.2767837,14.0610736 92.6697857,13.6260714 C93.0627877,13.1910693 93.5832825,12.9735714 94.2312857,12.9735714 Z M83.1432857,11.4255714 L83.1432857,17.4285714 L82.4682857,17.4285714 L82.4682857,16.7805714 C82.0962839,17.2845739 81.6072887,17.5365714 81.0012857,17.5365714 C80.4252828,17.5365714 79.9587875,17.3310735 79.6017857,16.9200714 C79.2447839,16.5090694 79.0662857,15.9555749 79.0662857,15.2595714 C79.0662857,14.569568 79.2447839,14.0160735 79.6017857,13.5990714 C79.9587875,13.1820693 80.4252828,12.9735714 81.0012857,12.9735714 C81.6012887,12.9735714 82.0902838,13.2285689 82.4682857,13.7385714 L82.4682857,11.4255714 L83.1432857,11.4255714 Z M71.3262857,12.9735714 C71.974289,12.9735714 72.4947837,13.1910693 72.8877857,13.6260714 C73.2807877,14.0610736 73.4772857,14.6025682 73.4772857,15.2505714 C73.4772857,15.8985747 73.2792877,16.4415692 72.8832857,16.8795714 C72.4932838,17.3175736 71.974289,17.5365714 71.3262857,17.5365714 C70.6782825,17.5365714 70.1577877,17.3175736 69.7647857,16.8795714 C69.3717837,16.4415692 69.1752857,15.8985747 69.1752857,15.2505714 C69.1752857,14.6025682 69.3717837,14.0610736 69.7647857,13.6260714 C70.1577877,13.1910693 70.6782825,12.9735714 71.3262857,12.9735714 Z M64.6662857,12.9735714 C65.5902903,12.9735714 66.0522857,13.4415667 66.0522857,14.3775714 L66.0522857,17.4285714 L65.3772857,17.4285714 L65.3772857,14.5845714 C65.3772857,14.2185696 65.2932866,13.9590722 65.1252857,13.8060714 C64.9572849,13.6530707 64.7172873,13.5765714 64.4052857,13.5765714 C64.1532845,13.5765714 63.9087869,13.6425708 63.6717857,13.7745714 C63.4347845,13.9065721 63.2502864,14.0655705 63.1182857,14.2515714 L63.1182857,17.4285714 L62.4432857,17.4285714 L62.4432857,13.0815714 L63.1182857,13.0815714 L63.1182857,13.7115714 C63.2862866,13.5135704 63.5112843,13.3410722 63.7932857,13.1940714 C64.0752871,13.0470707 64.3662842,12.9735714 64.6662857,12.9735714 Z M102.187286,12.9735714 C102.99729,12.9735714 103.402286,13.411567 103.402286,14.2875714 L103.402286,17.4285714 L102.727286,17.4285714 L102.727286,14.4765714 C102.727286,13.8765684 102.460288,13.5765714 101.926286,13.5765714 C101.710285,13.5765714 101.494287,13.6425708 101.278286,13.7745714 C101.062285,13.9065721 100.894286,14.0625705 100.774286,14.2425714 L100.774286,17.4285714 L100.099286,17.4285714 L100.099286,14.4765714 C100.099286,13.8765684 99.8322884,13.5765714 99.2982857,13.5765714 C99.0882847,13.5765714 98.8767868,13.6425708 98.6637857,13.7745714 C98.4507846,13.9065721 98.2812863,14.0655705 98.1552857,14.2515714 L98.1552857,17.4285714 L97.4802857,17.4285714 L97.4802857,13.0815714 L98.1552857,13.0815714 L98.1552857,13.7115714 C98.2632863,13.5435706 98.4522844,13.3785722 98.7222857,13.2165714 C98.9922871,13.0545706 99.2712843,12.9735714 99.5592857,12.9735714 C99.8772873,12.9735714 100.135285,13.0485707 100.333286,13.1985714 C100.531287,13.3485722 100.663285,13.5435702 100.729286,13.7835714 C100.861286,13.5675703 101.062284,13.3785722 101.332286,13.2165714 C101.602287,13.0545706 101.887284,12.9735714 102.187286,12.9735714 Z M91.4862857,12.9915714 L91.4862857,13.6845714 C91.4022853,13.6665713 91.3122862,13.6575714 91.2162857,13.6575714 C91.0122847,13.6575714 90.7902869,13.7295707 90.5502857,13.8735714 C90.3102845,14.0175721 90.1392862,14.1765706 90.0372857,14.3505714 L90.0372857,17.4285714 L89.3622857,17.4285714 L89.3622857,13.0815714 L90.0372857,13.0815714 L90.0372857,13.7835714 C90.4392877,13.2555688 90.9222829,12.9915714 91.4862857,12.9915714 Z M46.4682857,11.4255714 C47.3862903,11.4255714 48.1287829,11.7105686 48.6957857,12.2805714 C49.2627885,12.8505743 49.5462857,13.5675671 49.5462857,14.4315714 C49.5462857,15.3015758 49.2627885,16.0185686 48.6957857,16.5825714 C48.1287829,17.1465742 47.3862903,17.4285714 46.4682857,17.4285714 L44.4162857,17.4285714 L44.4162857,11.4255714 L46.4682857,11.4255714 Z M55.9722857,13.0815714 L57.0342857,16.5465714 L58.1772857,13.0815714 L58.7532857,13.0815714 L59.8962857,16.5465714 L60.9582857,13.0815714 L61.6602857,13.0815714 L60.2742857,17.4285714 L59.5992857,17.4285714 L58.4652857,13.9365714 L57.3312857,17.4285714 L56.6562857,17.4285714 L55.2702857,13.0815714 L55.9722857,13.0815714 Z M68.0772857,11.4255714 L68.0772857,17.4285714 L67.4022857,17.4285714 L67.4022857,11.4255714 L68.0772857,11.4255714 Z M88.2642857,11.3355714 C88.6362876,11.3355714 88.9422845,11.4465703 89.1822857,11.6685714 L88.9032857,12.1095714 C88.7412849,11.9655707 88.5612867,11.8935714 88.3632857,11.8935714 C88.1412846,11.8935714 87.9717863,11.9670707 87.8547857,12.1140714 C87.7377851,12.2610722 87.6792857,12.47257 87.6792857,12.7485714 L87.6792857,13.0815714 L88.5612857,13.0815714 L88.5612857,13.6755714 L87.6792857,13.6755714 L87.6792857,17.4285714 L87.0042857,17.4285714 L87.0042857,13.6755714 L86.2842857,13.6755714 L86.2842857,13.0815714 L87.0042857,13.0815714 L87.0042857,12.7485714 C87.0042857,12.3045692 87.1167846,11.9580727 87.3417857,11.7090714 C87.5667868,11.4600702 87.8742838,11.3355714 88.2642857,11.3355714 Z M76.0962857,15.1515714 C75.7842842,15.1515714 75.5277867,15.2400705 75.3267857,15.4170714 C75.1257847,15.5940723 75.0252857,15.82357 75.0252857,16.1055714 C75.0252857,16.3815728 75.1257847,16.6080705 75.3267857,16.7850714 C75.5277867,16.9620723 75.7842842,17.0505714 76.0962857,17.0505714 C76.6362884,17.0505714 77.0352844,16.8705732 77.2932857,16.5105714 L77.2932857,15.6915714 C77.0352844,15.3315696 76.6362884,15.1515714 76.0962857,15.1515714 Z M71.3262857,13.5765714 C70.8822835,13.5765714 70.529787,13.7400698 70.2687857,14.0670714 C70.0077844,14.3940731 69.8772857,14.7885691 69.8772857,15.2505714 C69.8772857,15.7185738 70.0062844,16.1175698 70.2642857,16.4475714 C70.528287,16.771573 70.8822835,16.9335714 71.3262857,16.9335714 C71.7702879,16.9335714 72.1212844,16.7700731 72.3792857,16.4430714 C72.637287,16.1160698 72.7662857,15.7185738 72.7662857,15.2505714 C72.7662857,14.7825691 72.637287,14.386573 72.3792857,14.0625714 C72.1212844,13.7385698 71.7702879,13.5765714 71.3262857,13.5765714 Z M52.5882857,13.5765714 C52.1442835,13.5765714 51.791787,13.7400698 51.5307857,14.0670714 C51.2697844,14.3940731 51.1392857,14.7885691 51.1392857,15.2505714 C51.1392857,15.7185738 51.2682844,16.1175698 51.5262857,16.4475714 C51.790287,16.771573 52.1442835,16.9335714 52.5882857,16.9335714 C53.0322879,16.9335714 53.3832844,16.7700731 53.6412857,16.4430714 C53.899287,16.1160698 54.0282857,15.7185738 54.0282857,15.2505714 C54.0282857,14.7825691 53.899287,14.386573 53.6412857,14.0625714 C53.3832844,13.7385698 53.0322879,13.5765714 52.5882857,13.5765714 Z M81.1632857,13.5765714 C80.7372836,13.5765714 80.398287,13.7340699 80.1462857,14.0490714 C79.8942845,14.364073 79.7682857,14.767569 79.7682857,15.2595714 C79.7682857,15.7515739 79.8942845,16.1535699 80.1462857,16.4655714 C80.398287,16.777573 80.7372836,16.9335714 81.1632857,16.9335714 C81.427287,16.9335714 81.6792845,16.8675721 81.9192857,16.7355714 C82.1592869,16.6035708 82.3422851,16.4415724 82.4682857,16.2495714 L82.4682857,14.2785714 C82.3422851,14.0805704 82.1577869,13.9140721 81.9147857,13.7790714 C81.6717845,13.6440708 81.421287,13.5765714 81.1632857,13.5765714 Z M94.2312857,13.5765714 C93.7872835,13.5765714 93.434787,13.7400698 93.1737857,14.0670714 C92.9127844,14.3940731 92.7822857,14.7885691 92.7822857,15.2505714 C92.7822857,15.7185738 92.9112844,16.1175698 93.1692857,16.4475714 C93.433287,16.771573 93.7872835,16.9335714 94.2312857,16.9335714 C94.6752879,16.9335714 95.0262844,16.7700731 95.2842857,16.4430714 C95.542287,16.1160698 95.6712857,15.7185738 95.6712857,15.2505714 C95.6712857,14.7825691 95.542287,14.386573 95.2842857,14.0625714 C95.0262844,13.7385698 94.6752879,13.5765714 94.2312857,13.5765714 Z M46.4682857,12.0915714 L45.1632857,12.0915714 L45.1632857,16.7625714 L46.4682857,16.7625714 C47.1762893,16.7625714 47.7372836,16.5405736 48.1512857,16.0965714 C48.5652878,15.6525692 48.7722857,15.0975748 48.7722857,14.4315714 C48.7722857,13.7595681 48.5682878,13.2015736 48.1602857,12.7575714 C47.7522837,12.3135692 47.1882893,12.0915714 46.4682857,12.0915714 Z M28.3524861,11 C28.5076536,12.4064844 27.9388163,13.8163437 27.0960541,14.8325469 C26.2523959,15.8464531 24.8690473,16.6360156 23.5138552,16.5309219 C23.3305312,15.1525625 24.0146358,13.7170156 24.7961327,12.8175781 C25.6670986,11.8036719 27.1385483,11.049125 28.3524861,11 Z"></path></g></g></g></svg>