<svg xmlns:xlink="http://www.w3.org/1999/xlink" xmlns="http://www.w3.org/2000/svg" version="1.1" viewBox="0 0 141 48"><title>Combined Shape</title><desc>Created with Sketch.</desc><g fill-rule="evenodd" fill="none" stroke-width="1" stroke="none" id="Symbols"><g fill-rule="nonzero" fill="#EBEBEB" transform="translate(-1061.000000, -22.000000)" id="Section-/-Footer-/-Desktop"><g transform="translate(1061.000000, 22.000000)" id="Shape-2"><path id="Combined-Shape" d="M133.745455,0 C137.53255,0 140.602597,3.07004743 140.602597,6.85714286 L140.602597,41.0181818 C140.602597,44.8052772 137.53255,47.8753247 133.745455,47.8753247 L6.85714286,47.8753247 C3.07004743,47.8753247 4.26325641e-14,44.8052772 4.26325641e-14,41.0181818 L4.26325641e-14,6.85714286 C4.26325641e-14,3.07004743 3.07004743,0 6.85714286,0 L133.745455,0 Z M133.745455,0.548571429 L6.85714286,0.548571429 C3.37301506,0.548571429 0.548571429,3.37301506 0.548571429,6.85714286 L0.548571429,41.0181818 C0.548571429,44.5023096 3.37301506,47.3267532 6.85714286,47.3267532 L133.745455,47.3267532 C137.229582,47.3267532 140.054026,44.5023096 140.054026,41.0181818 L140.054026,6.85714286 C140.054026,3.37301506 137.229582,0.548571429 133.745455,0.548571429 Z M122.464,29.272 L125.024,35.608 L127.6,29.272 L128.896,29.272 L125.024,38.568 C124.56,39.688 123.776,40.12 122.752,40.136 C122.496,40.136 122.096,40.088 121.888,40.024 L122.064,38.936 C122.24,39.016 122.528,39.064 122.72,39.064 C123.248,39.064 123.6,38.888 123.872,38.248 L124.384,37.08 L121.152,29.272 L122.464,29.272 Z M77.904,29.08 C78.944,29.08 79.888,29.592 80.512,30.44 L80.512,30.44 L80.512,29.272 L81.712,29.272 L81.712,36.888 C81.712,39.336 79.904,40.136 78.016,40.136 C76.72,40.136 75.824,39.88 74.896,38.968 L74.896,38.968 L75.504,38.104 C76.144,38.856 76.912,39.144 78.016,39.144 C79.296,39.144 80.512,38.52 80.512,36.888 L80.512,36.888 L80.512,35.72 C79.936,36.504 78.992,37.096 77.904,37.096 C75.888,37.096 74.464,35.592 74.464,33.096 C74.464,30.616 75.872,29.08 77.904,29.08 Z M50.304,26.152 C52.208,26.152 53.52,26.984 54.448,28.136 L54.448,28.136 L53.392,28.808 C52.72,27.944 51.584,27.336 50.304,27.336 C47.968,27.336 46.192,29.112 46.192,31.672 C46.192,34.2 47.968,36.008 50.304,36.008 C51.584,36.008 52.64,35.4 53.184,34.856 L53.184,34.856 L53.184,32.696 L49.504,32.696 L49.504,31.512 L54.496,31.512 L54.496,35.352 C53.504,36.472 52.048,37.208 50.304,37.208 C47.264,37.208 44.816,34.984 44.816,31.672 C44.816,28.344 47.264,26.152 50.304,26.152 Z M116.896,29.08 C118.544,29.08 119.888,29.816 119.888,31.688 L119.888,31.688 L119.888,37 L118.688,37 L118.688,36.12 C118.064,36.824 117.168,37.192 116.128,37.192 C114.832,37.192 113.44,36.312 113.44,34.632 C113.44,32.888 114.816,32.088 116.128,32.088 C117.184,32.088 118.064,32.424 118.688,33.128 L118.688,33.128 L118.688,31.736 C118.688,30.712 117.856,30.12 116.736,30.12 C115.808,30.12 115.056,30.44 114.368,31.192 L114.368,31.192 L113.808,30.36 C114.64,29.496 115.632,29.08 116.896,29.08 Z M91.072,29.08 C93.408,29.08 94.784,30.904 94.784,33.224 L94.784,33.224 L94.784,33.528 L88.544,33.528 C88.64,34.984 89.648,36.2 91.312,36.2 C92.208,36.2 93.088,35.848 93.712,35.208 L93.712,35.208 L94.288,35.992 C93.504,36.76 92.464,37.192 91.216,37.192 C88.912,37.192 87.264,35.544 87.264,33.128 C87.264,30.888 88.864,29.08 91.072,29.08 Z M69.136,29.08 C71.488,29.08 72.96,30.888 72.96,33.128 C72.96,35.368 71.488,37.192 69.136,37.192 C66.784,37.192 65.312,35.368 65.312,33.128 C65.312,30.888 66.784,29.08 69.136,29.08 Z M59.984,29.08 C62.336,29.08 63.808,30.888 63.808,33.128 C63.808,35.368 62.336,37.192 59.984,37.192 C57.632,37.192 56.16,35.368 56.16,33.128 C56.16,30.888 57.632,29.08 59.984,29.08 Z M111.456,26.328 L111.456,37 L110.256,37 L110.256,26.328 L111.456,26.328 Z M105.2,26.328 C107.344,26.328 108.544,27.8 108.544,29.544 C108.544,31.288 107.328,32.76 105.2,32.76 L105.2,32.76 L102.24,32.76 L102.24,37 L100.912,37 L100.912,26.328 Z M85.312,26.328 L85.312,37 L84.112,37 L84.112,26.328 L85.312,26.328 Z M116.576,32.952 C115.44,32.952 114.656,33.656 114.656,34.632 C114.656,35.624 115.44,36.328 116.576,36.328 C117.408,36.328 118.224,36.008 118.688,35.368 L118.688,35.368 L118.688,33.896 C118.224,33.272 117.408,32.952 116.576,32.952 Z M69.136,30.152 C67.488,30.152 66.576,31.56 66.576,33.128 C66.576,34.712 67.488,36.12 69.136,36.12 C70.784,36.12 71.696,34.712 71.696,33.128 C71.696,31.56 70.784,30.152 69.136,30.152 Z M59.984,30.152 C58.336,30.152 57.424,31.56 57.424,33.128 C57.424,34.712 58.336,36.12 59.984,36.12 C61.632,36.12 62.544,34.712 62.544,33.128 C62.544,31.56 61.632,30.152 59.984,30.152 Z M78.208,30.152 C76.64,30.152 75.712,31.384 75.712,33.096 C75.712,34.792 76.64,36.024 78.208,36.024 C79.152,36.024 80.08,35.448 80.512,34.776 L80.512,34.776 L80.512,31.384 C80.08,30.728 79.152,30.152 78.208,30.152 Z M27.4010071,25.8963672 L29.8949774,28.460189 C25.2159998,31.3788255 18.3881989,35.6337397 18.1349056,35.7939786 C17.9539816,35.905573 17.761923,35.9656624 17.5726485,36 L27.4010071,25.8963672 Z M16.0389686,14.2132371 L26.0566011,24.5143069 L16.0278341,34.823961 C16.0167011,34.7438416 16,34.6665834 16,34.5836027 L16,14.5566061 C16,14.4364273 16.0167011,14.3248322 16.0389686,14.2132371 Z M91.056,30.072 C89.408,30.072 88.592,31.464 88.528,32.632 L88.528,32.632 L93.6,32.632 C93.584,31.496 92.816,30.072 91.056,30.072 Z M105.04,27.512 L102.24,27.512 L102.24,31.576 L105.04,31.576 C106.304,31.576 107.168,30.744 107.168,29.544 C107.168,28.344 106.304,27.512 105.04,27.512 L105.04,27.512 Z M31.6179325,21.5613335 C33.0875936,22.4769842 34.1063356,23.1122172 34.2176735,23.1751678 C34.7047773,23.4584474 34.994256,23.9191339 34.9998225,24.4370487 C35.0081731,24.9635478 34.7214784,25.4471263 34.212107,25.767604 C34.0979858,25.8391391 33.062542,26.4829557 31.5678301,27.4157752 L28.7454132,24.5143069 L31.6179325,21.5613335 Z M17.5420304,13 C17.803675,13.02003 18.0681028,13.1030107 18.3158296,13.2575264 L19.7186879,14.1331177 C21.8118415,15.4407811 26.4685515,18.3508338 29.9450791,20.5169197 L27.4010071,23.1322465 L17.5420304,13 Z M72.1834286,12.9735714 C72.8314318,12.9735714 73.3519266,13.1910693 73.7449286,13.6260714 C74.1379305,14.0610736 74.3344286,14.6025682 74.3344286,15.2505714 C74.3344286,15.8985747 74.1364306,16.4415692 73.7404286,16.8795714 C73.3504266,17.3175736 72.8314318,17.5365714 72.1834286,17.5365714 C71.5354253,17.5365714 71.0149305,17.3175736 70.6219286,16.8795714 C70.2289266,16.4415692 70.0324286,15.8985747 70.0324286,15.2505714 C70.0324286,14.6025682 70.2289266,14.0610736 70.6219286,13.6260714 C71.0149305,13.1910693 71.5354253,12.9735714 72.1834286,12.9735714 Z M77.1424286,12.9735714 C77.6404311,12.9735714 78.045427,13.0935702 78.3574286,13.3335714 C78.6694301,13.5735726 78.8254286,13.9425689 78.8254286,14.4405714 L78.8254286,17.4285714 L78.1504286,17.4285714 L78.1504286,16.9335714 C77.7844267,17.3355734 77.3044315,17.5365714 76.7104286,17.5365714 C76.3084266,17.5365714 75.9544301,17.4075727 75.6484286,17.1495714 C75.342427,16.8915701 75.1894286,16.5405736 75.1894286,16.0965714 C75.1894286,15.6405691 75.3409271,15.2880727 75.6439286,15.0390714 C75.9469301,14.7900702 76.3024265,14.6655714 76.7104286,14.6655714 C77.3284317,14.6655714 77.8084269,14.8635694 78.1504286,15.2595714 L78.1504286,14.4765714 C78.1504286,14.18857 78.0484296,13.9635722 77.8444286,13.8015714 C77.6404276,13.6395706 77.3764302,13.5585714 77.0524286,13.5585714 C76.542426,13.5585714 76.0984305,13.7595694 75.7204286,14.1615714 L75.4054286,13.6935714 C75.8674309,13.213569 76.4464251,12.9735714 77.1424286,12.9735714 Z M95.0884286,12.9735714 C95.7364318,12.9735714 96.2569266,13.1910693 96.6499286,13.6260714 C97.0429305,14.0610736 97.2394286,14.6025682 97.2394286,15.2505714 C97.2394286,15.8985747 97.0414306,16.4415692 96.6454286,16.8795714 C96.2554266,17.3175736 95.7364318,17.5365714 95.0884286,17.5365714 C94.4404253,17.5365714 93.9199305,17.3175736 93.5269286,16.8795714 C93.1339266,16.4415692 92.9374286,15.8985747 92.9374286,15.2505714 C92.9374286,14.6025682 93.1339266,14.0610736 93.5269286,13.6260714 C93.9199305,13.1910693 94.4404253,12.9735714 95.0884286,12.9735714 Z M53.4454286,12.9735714 C54.0934318,12.9735714 54.6139266,13.1910693 55.0069286,13.6260714 C55.3999305,14.0610736 55.5964286,14.6025682 55.5964286,15.2505714 C55.5964286,15.8985747 55.3984306,16.4415692 55.0024286,16.8795714 C54.6124266,17.3175736 54.0934318,17.5365714 53.4454286,17.5365714 C52.7974253,17.5365714 52.2769305,17.3175736 51.8839286,16.8795714 C51.4909266,16.4415692 51.2944286,15.8985747 51.2944286,15.2505714 C51.2944286,14.6025682 51.4909266,14.0610736 51.8839286,13.6260714 C52.2769305,13.1910693 52.7974253,12.9735714 53.4454286,12.9735714 Z M84.0004286,11.4255714 L84.0004286,17.4285714 L83.3254286,17.4285714 L83.3254286,16.7805714 C82.9534267,17.2845739 82.4644316,17.5365714 81.8584286,17.5365714 C81.2824257,17.5365714 80.8159304,17.3310735 80.4589286,16.9200714 C80.1019268,16.5090694 79.9234286,15.9555749 79.9234286,15.2595714 C79.9234286,14.569568 80.1019268,14.0160735 80.4589286,13.5990714 C80.8159304,13.1820693 81.2824257,12.9735714 81.8584286,12.9735714 C82.4584316,12.9735714 82.9474267,13.2285689 83.3254286,13.7385714 L83.3254286,11.4255714 L84.0004286,11.4255714 Z M89.1214286,11.3355714 C89.4934304,11.3355714 89.7994274,11.4465703 90.0394286,11.6685714 L89.7604286,12.1095714 C89.5984278,11.9655707 89.4184296,11.8935714 89.2204286,11.8935714 C88.9984275,11.8935714 88.8289292,11.9670707 88.7119286,12.1140714 C88.594928,12.2610722 88.5364286,12.47257 88.5364286,12.7485714 L88.5364286,13.0815714 L89.4184286,13.0815714 L89.4184286,13.6755714 L88.5364286,13.6755714 L88.5364286,17.4285714 L87.8614286,17.4285714 L87.8614286,13.6755714 L87.1414286,13.6755714 L87.1414286,13.0815714 L87.8614286,13.0815714 L87.8614286,12.7485714 C87.8614286,12.3045692 87.9739274,11.9580727 88.1989286,11.7090714 C88.4239297,11.4600702 88.7314266,11.3355714 89.1214286,11.3355714 Z M103.044429,12.9735714 C103.854433,12.9735714 104.259429,13.411567 104.259429,14.2875714 L104.259429,17.4285714 L103.584429,17.4285714 L103.584429,14.4765714 C103.584429,13.8765684 103.317431,13.5765714 102.783429,13.5765714 C102.567427,13.5765714 102.35143,13.6425708 102.135429,13.7745714 C101.919427,13.9065721 101.751429,14.0625705 101.631429,14.2425714 L101.631429,17.4285714 L100.956429,17.4285714 L100.956429,14.4765714 C100.956429,13.8765684 100.689431,13.5765714 100.155429,13.5765714 C99.9454275,13.5765714 99.7339296,13.6425708 99.5209286,13.7745714 C99.3079275,13.9065721 99.1384292,14.0655705 99.0124286,14.2515714 L99.0124286,17.4285714 L98.3374286,17.4285714 L98.3374286,13.0815714 L99.0124286,13.0815714 L99.0124286,13.7115714 C99.1204291,13.5435706 99.3094272,13.3785722 99.5794286,13.2165714 C99.8494299,13.0545706 100.128427,12.9735714 100.416429,12.9735714 C100.73443,12.9735714 100.992428,13.0485707 101.190429,13.1985714 C101.38843,13.3485722 101.520428,13.5435702 101.586429,13.7835714 C101.718429,13.5675703 101.919427,13.3785722 102.189429,13.2165714 C102.45943,13.0545706 102.744427,12.9735714 103.044429,12.9735714 Z M65.5234286,12.9735714 C66.4474332,12.9735714 66.9094286,13.4415667 66.9094286,14.3775714 L66.9094286,17.4285714 L66.2344286,17.4285714 L66.2344286,14.5845714 C66.2344286,14.2185696 66.1504294,13.9590722 65.9824286,13.8060714 C65.8144277,13.6530707 65.5744301,13.5765714 65.2624286,13.5765714 C65.0104273,13.5765714 64.7659298,13.6425708 64.5289286,13.7745714 C64.2919274,13.9065721 64.1074292,14.0655705 63.9754286,14.2515714 L63.9754286,17.4285714 L63.3004286,17.4285714 L63.3004286,13.0815714 L63.9754286,13.0815714 L63.9754286,13.7115714 C64.1434294,13.5135704 64.3684272,13.3410722 64.6504286,13.1940714 C64.93243,13.0470707 65.2234271,12.9735714 65.5234286,12.9735714 Z M47.3254286,11.4255714 C48.2434332,11.4255714 48.9859257,11.7105686 49.5529286,12.2805714 C50.1199314,12.8505743 50.4034286,13.5675671 50.4034286,14.4315714 C50.4034286,15.3015758 50.1199314,16.0185686 49.5529286,16.5825714 C48.9859257,17.1465742 48.2434332,17.4285714 47.3254286,17.4285714 L45.2734286,17.4285714 L45.2734286,11.4255714 L47.3254286,11.4255714 Z M56.8294286,13.0815714 L57.8914286,16.5465714 L59.0344286,13.0815714 L59.6104286,13.0815714 L60.7534286,16.5465714 L61.8154286,13.0815714 L62.5174286,13.0815714 L61.1314286,17.4285714 L60.4564286,17.4285714 L59.3224286,13.9365714 L58.1884286,17.4285714 L57.5134286,17.4285714 L56.1274286,13.0815714 L56.8294286,13.0815714 Z M92.3434286,12.9915714 L92.3434286,13.6845714 C92.2594282,13.6665713 92.1694291,13.6575714 92.0734286,13.6575714 C91.8694276,13.6575714 91.6474298,13.7295707 91.4074286,13.8735714 C91.1674274,14.0175721 90.9964291,14.1765706 90.8944286,14.3505714 L90.8944286,17.4285714 L90.2194286,17.4285714 L90.2194286,13.0815714 L90.8944286,13.0815714 L90.8944286,13.7835714 C91.2964306,13.2555688 91.7794258,12.9915714 92.3434286,12.9915714 Z M68.9344286,11.4255714 L68.9344286,17.4285714 L68.2594286,17.4285714 L68.2594286,11.4255714 L68.9344286,11.4255714 Z M76.9534286,15.1515714 C76.641427,15.1515714 76.3849296,15.2400705 76.1839286,15.4170714 C75.9829276,15.5940723 75.8824286,15.82357 75.8824286,16.1055714 C75.8824286,16.3815728 75.9829276,16.6080705 76.1839286,16.7850714 C76.3849296,16.9620723 76.641427,17.0505714 76.9534286,17.0505714 C77.4934313,17.0505714 77.8924273,16.8705732 78.1504286,16.5105714 L78.1504286,15.6915714 C77.8924273,15.3315696 77.4934313,15.1515714 76.9534286,15.1515714 Z M53.4454286,13.5765714 C53.0014264,13.5765714 52.6489299,13.7400698 52.3879286,14.0670714 C52.1269273,14.3940731 51.9964286,14.7885691 51.9964286,15.2505714 C51.9964286,15.7185738 52.1254273,16.1175698 52.3834286,16.4475714 C52.6474299,16.771573 53.0014264,16.9335714 53.4454286,16.9335714 C53.8894308,16.9335714 54.2404273,16.7700731 54.4984286,16.4430714 C54.7564299,16.1160698 54.8854286,15.7185738 54.8854286,15.2505714 C54.8854286,14.7825691 54.7564299,14.386573 54.4984286,14.0625714 C54.2404273,13.7385698 53.8894308,13.5765714 53.4454286,13.5765714 Z M95.0884286,13.5765714 C94.6444264,13.5765714 94.2919299,13.7400698 94.0309286,14.0670714 C93.7699273,14.3940731 93.6394286,14.7885691 93.6394286,15.2505714 C93.6394286,15.7185738 93.7684273,16.1175698 94.0264286,16.4475714 C94.2904299,16.771573 94.6444264,16.9335714 95.0884286,16.9335714 C95.5324308,16.9335714 95.8834273,16.7700731 96.1414286,16.4430714 C96.3994299,16.1160698 96.5284286,15.7185738 96.5284286,15.2505714 C96.5284286,14.7825691 96.3994299,14.386573 96.1414286,14.0625714 C95.8834273,13.7385698 95.5324308,13.5765714 95.0884286,13.5765714 Z M72.1834286,13.5765714 C71.7394264,13.5765714 71.3869299,13.7400698 71.1259286,14.0670714 C70.8649273,14.3940731 70.7344286,14.7885691 70.7344286,15.2505714 C70.7344286,15.7185738 70.8634273,16.1175698 71.1214286,16.4475714 C71.3854299,16.771573 71.7394264,16.9335714 72.1834286,16.9335714 C72.6274308,16.9335714 72.9784273,16.7700731 73.2364286,16.4430714 C73.4944299,16.1160698 73.6234286,15.7185738 73.6234286,15.2505714 C73.6234286,14.7825691 73.4944299,14.386573 73.2364286,14.0625714 C72.9784273,13.7385698 72.6274308,13.5765714 72.1834286,13.5765714 Z M82.0204286,13.5765714 C81.5944264,13.5765714 81.2554298,13.7340699 81.0034286,14.0490714 C80.7514273,14.364073 80.6254286,14.767569 80.6254286,15.2595714 C80.6254286,15.7515739 80.7514273,16.1535699 81.0034286,16.4655714 C81.2554298,16.777573 81.5944264,16.9335714 82.0204286,16.9335714 C82.2844299,16.9335714 82.5364274,16.8675721 82.7764286,16.7355714 C83.0164298,16.6035708 83.1994279,16.4415724 83.3254286,16.2495714 L83.3254286,14.2785714 C83.1994279,14.0805704 83.0149298,13.9140721 82.7719286,13.7790714 C82.5289274,13.6440708 82.2784299,13.5765714 82.0204286,13.5765714 Z M47.3254286,12.0915714 L46.0204286,12.0915714 L46.0204286,16.7625714 L47.3254286,16.7625714 C48.0334321,16.7625714 48.5944265,16.5405736 49.0084286,16.0965714 C49.4224306,15.6525692 49.6294286,15.0975748 49.6294286,14.4315714 C49.6294286,13.7595681 49.4254306,13.2015736 49.0174286,12.7575714 C48.6094265,12.3135692 48.0454322,12.0915714 47.3254286,12.0915714 Z"></path></g></g></g></svg>